<?xml version="1.0" standalone="no"?>
<!DOCTYPE svg PUBLIC "-//W3C//DTD SVG 20010904//EN"
 "http://www.w3.org/TR/2001/REC-SVG-20010904/DTD/svg10.dtd">
<svg version="1.0" xmlns="http://www.w3.org/2000/svg"
 width="217.000000pt" height="217.000000pt" viewBox="0 0 217.000000 217.000000"
 preserveAspectRatio="xMidYMid meet">
<metadata>
Created by potrace 1.14, written by Peter Selinger 2001-2017
</metadata>
<g transform="translate(0.000000,217.000000) scale(0.100000,-0.100000)"
fill="#000000" stroke="none">
<path d="M0 1085 l0 -1085 1085 0 1085 0 0 1085 0 1085 -1085 0 -1085 0 0
-1085z m2070 -5 l0 -980 -980 0 -980 0 0 980 0 980 980 0 980 0 0 -980z"/>
<path d="M170 1080 l0 -920 920 0 920 0 0 920 0 920 -920 0 -920 0 0 -920z
m936 584 c54 -40 69 -70 69 -139 0 -48 -5 -71 -21 -92 -30 -41 -99 -73 -159
-73 l-50 0 0 -87 0 -88 -57 -3 -58 -3 0 256 0 257 124 -4 c107 -3 128 -6 152
-24z m244 -229 l0 -256 -57 3 -58 3 -1 253 -1 252 58 0 59 0 0 -255z m-925
-530 c14 -13 25 -30 25 -38 0 -26 -41 -67 -66 -67 -21 0 -24 -5 -24 -35 0 -31
-3 -35 -25 -35 l-25 0 0 100 0 100 45 0 c35 0 52 -6 70 -25z m138 14 c43 -23
50 -66 17 -99 l-21 -21 27 -34 26 -35 -23 0 c-15 0 -34 12 -51 32 l-27 33 -1
-32 c0 -26 -4 -33 -20 -33 -19 0 -20 7 -20 100 l0 100 36 0 c19 0 45 -5 57
-11z m206 -3 c57 -30 68 -110 22 -157 -64 -63 -171 -16 -171 77 0 16 12 38 34
60 37 37 70 43 115 20z m231 -1 c17 -9 30 -17 30 -19 0 -3 3 -11 6 -20 8 -21
-19 -21 -51 0 -52 34 -110 -18 -83 -74 16 -32 67 -42 88 -18 11 14 9 16 -9 16
-25 0 -29 29 -3 31 58 5 67 3 70 -19 2 -14 -7 -33 -27 -52 -56 -57 -152 -31
-167 46 -17 89 66 151 146 109z m173 4 c43 -23 50 -66 17 -99 l-20 -20 22 -30
c12 -17 25 -30 28 -30 4 0 24 43 44 95 50 125 61 125 111 0 21 -52 41 -92 45
-90 4 3 10 23 14 45 19 118 27 140 51 140 20 0 27 -10 46 -67 l23 -68 20 68
c18 62 22 68 45 65 21 -3 26 -11 37 -58 7 -30 15 -74 19 -97 6 -41 5 -43 -18
-43 -23 0 -26 5 -32 60 -4 33 -10 58 -14 55 -4 -2 -14 -29 -21 -60 -11 -47
-17 -55 -36 -55 -20 0 -26 9 -40 62 -19 66 -24 63 -39 -24 -6 -38 -6 -38 -55
-38 -40 0 -50 4 -55 20 -5 15 -15 20 -45 20 -30 0 -40 -5 -45 -20 -5 -16 -15
-20 -55 -20 -43 0 -52 4 -74 33 l-26 32 0 -32 c0 -26 -4 -33 -20 -33 -19 0
-20 7 -20 100 l0 100 36 0 c19 0 45 -5 57 -11z m668 -84 c21 -50 38 -93 38
-97 2 -17 -39 -7 -49 12 -8 14 -21 20 -45 20 -24 0 -37 -6 -45 -20 -9 -17 -50
-29 -50 -15 0 5 31 84 59 148 30 70 47 61 92 -48z m-1441 -208 c14 -7 33 -29
43 -50 35 -71 -14 -137 -102 -137 l-41 0 0 100 0 100 38 0 c20 0 48 -6 62 -13z
m198 -9 c3 -15 -4 -18 -32 -18 -29 0 -36 -4 -36 -20 0 -16 7 -20 30 -20 23 0
30 -4 30 -20 0 -16 -7 -20 -30 -20 -23 0 -30 -4 -30 -20 0 -16 7 -20 35 -20
28 0 35 -4 35 -20 0 -18 -7 -20 -60 -20 l-60 0 0 100 0 101 57 -3 c46 -2 59
-7 61 -20z m152 -78 c0 -97 -1 -100 -22 -100 -22 0 -23 3 -21 97 1 54 2 99 2
101 1 1 10 2 21 2 19 0 20 -7 20 -100z m135 85 c52 -26 68 -80 40 -136 -18
-34 -50 -49 -106 -49 l-39 0 0 100 0 100 36 0 c20 0 51 -7 69 -15z m125 -85
c0 -93 -1 -100 -20 -100 -19 0 -20 7 -20 100 0 93 1 100 20 100 19 0 20 -7 20
-100z m196 66 c38 -38 43 -70 19 -116 -19 -37 -43 -50 -90 -50 -97 0 -130 131
-47 183 43 27 80 21 118 -17z m153 -28 c9 -31 19 -59 22 -63 4 -3 15 24 24 60
17 61 20 66 44 63 24 -3 27 -9 43 -88 22 -110 22 -110 -6 -110 -22 0 -25 5
-31 60 -4 33 -10 58 -14 55 -4 -2 -14 -29 -21 -60 -11 -47 -17 -55 -36 -55
-19 0 -25 9 -39 58 -9 31 -17 62 -19 67 -1 6 -8 -20 -15 -57 -12 -62 -16 -68
-37 -68 -20 0 -23 4 -19 23 8 36 35 168 35 173 0 3 12 4 27 2 23 -3 29 -10 42
-60z m308 -21 c18 -45 35 -90 39 -99 5 -14 1 -18 -20 -18 -19 0 -26 5 -26 20
0 17 -7 20 -41 20 -32 0 -42 -4 -46 -20 -3 -13 -14 -20 -29 -20 -29 0 -29 -2
-5 57 71 177 81 182 128 60z m193 63 c25 -25 25 -40 1 -40 -11 0 -23 5 -26 10
-3 6 -17 10 -31 10 -38 0 -29 -28 14 -40 50 -14 59 -21 67 -52 16 -64 -89 -95
-142 -42 -21 21 -23 28 -12 35 9 5 21 3 34 -7 31 -22 44 -27 60 -20 27 10 16
35 -21 45 -44 12 -74 38 -74 63 0 30 36 58 75 58 22 0 43 -8 55 -20z"/>
<path d="M950 1525 l0 -75 34 0 c48 0 86 33 86 76 0 47 -29 74 -80 74 l-40 0
0 -75z"/>
<path d="M360 866 c0 -32 20 -44 36 -22 16 23 7 46 -17 46 -13 0 -19 -7 -19
-24z"/>
<path d="M510 861 c0 -20 5 -29 15 -27 40 6 45 56 5 56 -15 0 -20 -7 -20 -29z"/>
<path d="M703 879 c-31 -11 -46 -44 -33 -69 24 -44 79 -49 101 -8 24 45 -20
95 -68 77z"/>
<path d="M1120 861 c0 -20 5 -29 15 -27 40 6 45 56 5 56 -15 0 -20 -7 -20 -29z"/>
<path d="M1306 838 c-9 -34 -8 -37 15 -31 12 4 18 11 15 20 -3 8 -6 19 -6 24
0 18 -18 8 -24 -13z"/>
<path d="M1773 843 c-9 -24 -9 -33 1 -36 25 -10 35 7 22 38 l-12 30 -11 -32z"/>
<path d="M347 593 c-4 -3 -7 -30 -7 -60 0 -45 3 -53 18 -53 48 0 70 76 30 104
-25 18 -32 19 -41 9z"/>
<path d="M830 540 c0 -45 3 -60 14 -60 45 0 62 77 24 104 -12 9 -26 16 -30 16
-5 0 -8 -27 -8 -60z"/>
<path d="M1113 588 c-42 -20 -36 -90 9 -104 67 -21 100 73 38 106 -22 12 -19
12 -47 -2z"/>
<path d="M1601 550 c-9 -28 -8 -30 14 -30 22 0 23 2 14 30 -6 17 -12 30 -14
30 -2 0 -8 -13 -14 -30z"/>
</g>
</svg>
